<?xml version="1.0" encoding="UTF-8"?>
<svg xmlns="http://www.w3.org/2000/svg" width="900" height="340" viewBox="0 0 900 340">
<rect width="900" height="340" fill="white"/>
<text x="56" y="20" font-family="monospace" font-size="14" fill="#111">D4/D5-S00 mirrored bursts - B3 valence</text>
<line x1="56" y1="30" x2="56" y2="300" stroke="#888"/>
<line x1="56" y1="300" x2="884" y2="300" stroke="#888"/>
<line x1="56" y1="300" x2="884" y2="300" stroke="#eee"/>
<text x="50" y="304" font-family="monospace" font-size="10" fill="#333" text-anchor="end">-1</text>
<line x1="56" y1="232.5" x2="884" y2="232.5" stroke="#eee"/>
<text x="50" y="236.5" font-family="monospace" font-size="10" fill="#333" text-anchor="end">-0.5</text>
<line x1="56" y1="165" x2="884" y2="165" stroke="#eee"/>
<text x="50" y="169" font-family="monospace" font-size="10" fill="#333" text-anchor="end">0</text>
<line x1="56" y1="97.5" x2="884" y2="97.5" stroke="#eee"/>
<text x="50" y="101.5" font-family="monospace" font-size="10" fill="#333" text-anchor="end">0.5</text>
<line x1="56" y1="30" x2="884" y2="30" stroke="#eee"/>
<text x="50" y="34" font-family="monospace" font-size="10" fill="#333" text-anchor="end">1</text>
<text x="56" y="314" font-family="monospace" font-size="10" fill="#333" text-anchor="middle">0</text>
<text x="194" y="314" font-family="monospace" font-size="10" fill="#333" text-anchor="middle">666.5</text>
<text x="332" y="314" font-family="monospace" font-size="10" fill="#333" text-anchor="middle">1333</text>
<text x="470" y="314" font-family="monospace" font-size="10" fill="#333" text-anchor="middle">2000</text>
<text x="608" y="314" font-family="monospace" font-size="10" fill="#333" text-anchor="middle">2666</text>
<text x="746" y="314" font-family="monospace" font-size="10" fill="#333" text-anchor="middle">3333</text>
<text x="884" y="314" font-family="monospace" font-size="10" fill="#333" text-anchor="middle">3999</text>
<text x="12" y="170" font-family="monospace" font-size="11" fill="#333" transform="rotate(-90 12 170)" text-anchor="middle">valence</text>
<text x="450" y="334" font-family="monospace" font-size="11" fill="#333" text-anchor="middle">experiment time (ticks)</text>
<polyline points="56.000,165.000 58.071,165.000 60.141,165.000 62.212,165.000 64.282,165.000 66.353,165.000 68.423,165.000 70.494,165.000 72.564,165.000 74.635,165.000 76.705,165.474 78.776,165.444 80.846,165.415 82.917,165.388 84.987,165.363 87.058,165.340 89.128,165.318 91.199,165.297 93.269,165.278 95.340,165.260 97.410,165.244 99.481,165.228 101.551,165.213 103.622,165.126 105.692,165.118 107.763,164.370 109.833,164.411 111.904,164.449 113.974,164.484 116.045,164.517 118.116,164.622 120.186,164.646 122.257,164.669 124.327,164.690 126.398,164.710 128.468,164.729 130.539,164.746 132.609,164.763 134.680,164.778 136.750,164.792 138.821,164.806 140.891,164.818 142.962,164.830 145.032,164.841 147.103,164.851 149.173,164.861 151.244,164.870 153.314,164.878 155.385,164.886 157.455,164.893 159.526,164.900 161.596,164.907 163.667,164.913 165.737,164.918 167.808,164.924 169.878,164.929 171.949,164.933 174.020,164.937 176.090,164.941 178.161,164.945 180.231,164.949 182.302,164.952 184.372,164.955 186.443,164.958 188.513,164.961 190.584,164.963 192.654,164.966 194.725,164.931 196.795,164.936 198.866,164.940 200.936,164.979 203.007,164.980 205.077,164.982 207.148,164.983 209.218,164.653 211.289,164.675 213.359,164.696 215.430,164.715 217.500,165.065 219.571,165.061 221.641,165.057 223.712,165.053 225.782,165.050 227.853,165.047 229.923,165.044 231.994,165.041 234.065,164.548 236.135,164.577 238.206,164.604 240.276,164.630 242.347,164.654 244.417,165.431 246.488,165.403 248.558,165.377 250.629,165.353 252.699,165.330 254.770,165.309 256.840,165.289 258.911,165.270 260.981,165.253 263.052,183.435 265.122,270.622 267.193,300.000 269.263,300.000 271.334,300.000 273.404,300.000 275.475,300.000 277.545,300.000 279.616,300.000 281.686,300.000 283.757,298.212 285.827,289.621 287.898,281.584 289.968,274.065 292.039,267.031 294.110,260.451 296.180,254.295 298.251,248.536 300.321,243.148 302.392,238.108 304.462,233.393 306.533,228.982 308.603,224.856 310.674,220.996 312.744,217.384 314.815,214.006 316.885,210.845 318.956,207.889 321.026,205.123 323.097,202.535 325.167,200.114 327.238,197.850 329.308,195.731 331.379,193.749 333.449,191.895 335.520,190.160 337.590,188.538 339.661,187.020 341.731,185.600 343.802,184.271 345.872,183.028 347.943,181.866 350.014,180.778 352.084,179.760 354.155,178.808 356.225,177.918 358.296,177.085 360.366,176.305 362.437,175.576 364.507,174.894 366.578,174.256 368.648,173.659 370.719,173.101 372.789,172.578 374.860,172.089 376.930,171.632 379.001,171.204 381.071,170.804 383.142,170.430 385.212,170.080 387.283,169.752 389.353,169.446 391.424,169.159 393.494,168.891 395.565,168.640 397.635,168.405 399.706,168.185 401.776,167.980 403.847,167.788 405.917,167.608 407.988,167.440 410.059,167.283 412.129,167.135 414.200,166.998 416.270,166.869 418.341,166.748 420.411,166.635 422.482,166.530 424.552,166.431 426.623,166.339 428.693,166.253 430.764,166.172 432.834,166.096 434.905,166.026 436.975,165.959 439.046,165.898 441.116,165.840 443.187,165.786 445.257,165.735 447.328,165.687 449.398,165.643 451.469,165.602 453.539,165.563 455.610,165.527 457.680,165.493 459.751,165.461 461.821,165.431 463.892,165.403 465.962,165.377 468.033,165.353 470.104,165.330 472.174,165.309 474.245,165.289 476.315,165.270 478.386,165.253 480.456,165.237 482.527,165.221 484.597,165.207 486.668,165.194 488.738,165.181 490.809,165.170 492.879,165.159 494.950,165.148 497.020,165.139 499.091,165.130 501.161,165.121 503.232,165.114 505.302,165.106 507.373,165.099 509.443,165.093 511.514,165.087 513.584,165.081 515.655,165.076 517.725,165.071 519.796,165.067 521.866,165.062 523.937,165.058 526.008,165.055 528.078,165.051 530.149,165.048 532.219,165.045 534.290,165.042 536.360,165.039 538.431,165.037 540.501,165.034 542.572,165.032 544.642,165.030 546.713,165.028 548.783,165.026 550.854,165.025 552.924,165.023 554.995,165.021 557.065,165.020 559.136,165.019 561.206,165.018 563.277,165.016 565.347,165.015 567.418,165.014 569.488,165.013 571.559,165.013 573.629,165.012 575.700,165.011 577.770,165.010 579.841,165.010 581.911,165.009 583.982,165.008 586.053,165.008 588.123,165.007 590.194,165.007 592.264,165.006 594.335,165.006 596.405,165.006 598.476,165.005 600.546,165.005 602.617,165.005 604.687,165.004 606.758,165.004 608.828,165.004 610.899,165.004 612.969,165.003 615.040,165.003 617.110,165.003 619.181,165.003 621.251,165.003 623.322,165.002 625.392,165.002 627.463,165.002 629.533,165.002 631.604,165.002 633.674,165.002 635.745,165.002 637.815,165.001 639.886,165.001 641.956,165.001 644.027,165.001 646.098,165.001 648.168,165.001 650.239,165.001 652.309,165.001 654.380,165.001 656.450,165.001 658.521,165.001 660.591,165.001 662.662,165.001 664.732,165.001 666.803,165.001 668.873,165.001 670.944,165.001 673.014,165.000 675.085,165.000 677.155,165.000 679.226,165.000 681.296,165.000 683.367,165.000 685.437,165.000 687.508,165.000 689.578,165.000 691.649,165.000 693.719,165.000 695.790,165.000 697.860,165.000 699.931,165.000 702.002,165.000 704.072,165.000 706.143,165.000 708.213,165.000 710.284,165.000 712.354,165.000 714.425,165.000 716.495,165.000 718.566,165.000 720.636,165.000 722.707,165.000 724.777,165.000 726.848,165.000 728.918,165.000 730.989,165.000 733.059,165.000 735.130,165.000 737.200,165.000 739.271,165.000 741.341,165.000 743.412,165.000 745.482,165.000 747.553,165.000 749.623,165.000 751.694,165.000 753.764,165.000 755.835,165.000 757.905,165.000 759.976,165.000 762.047,165.000 764.117,165.000 766.188,165.000 768.258,165.000 770.329,165.000 772.399,165.000 774.470,165.000 776.540,165.000 778.611,165.000 780.681,165.000 782.752,165.000 784.822,165.000 786.893,165.000 788.963,165.000 791.034,165.000 793.104,165.000 795.175,165.000 797.245,165.000 799.316,165.000 801.386,165.000 803.457,165.000 805.527,165.000 807.598,165.000 809.668,165.000 811.739,165.000 813.809,165.000 815.880,165.000 817.950,165.000 820.021,165.000 822.092,165.000 824.162,165.000 826.233,165.000 828.303,165.000 830.374,165.000 832.444,165.000 834.515,165.000 836.585,165.000 838.656,165.000 840.726,165.000 842.797,165.000 844.867,165.000 846.938,165.000 849.008,165.000 851.079,165.000 853.149,165.000 855.220,165.000 857.290,165.000 859.361,165.000 861.431,165.000 863.502,165.000 865.572,165.000 867.643,165.000 869.713,165.000 871.784,165.000 873.854,165.000 875.925,165.000 877.995,165.000 880.066,165.000 882.137,165.000" fill="none" stroke="#c0392b" stroke-width="1.4"/>
<polyline points="56.000,165.000 58.071,165.000 60.141,165.000 62.212,165.000 64.282,165.000 66.353,165.000 68.423,165.000 70.494,165.000 72.564,165.000 74.635,165.000 76.705,164.526 78.776,164.556 80.846,164.585 82.917,164.612 84.987,164.637 87.058,164.660 89.128,164.682 91.199,164.703 93.269,164.722 95.340,164.740 97.410,164.756 99.481,164.772 101.551,164.787 103.622,164.874 105.692,164.882 107.763,165.630 109.833,165.589 111.904,165.551 113.974,165.516 116.045,165.483 118.116,165.378 120.186,165.354 122.257,165.331 124.327,165.310 126.398,165.290 128.468,165.271 130.539,165.254 132.609,165.237 134.680,165.222 136.750,165.208 138.821,165.194 140.891,165.182 142.962,165.170 145.032,165.159 147.103,165.149 149.173,165.139 151.244,165.130 153.314,165.122 155.385,165.114 157.455,165.107 159.526,165.100 161.596,165.093 163.667,165.087 165.737,165.082 167.808,165.076 169.878,165.071 171.949,165.067 174.020,165.063 176.090,165.059 178.161,165.055 180.231,165.051 182.302,165.048 184.372,165.045 186.443,165.042 188.513,165.039 190.584,165.037 192.654,165.034 194.725,165.069 196.795,165.064 198.866,165.060 200.936,165.021 203.007,165.020 205.077,165.018 207.148,165.017 209.218,165.347 211.289,165.325 213.359,165.304 215.430,165.285 217.500,164.935 219.571,164.939 221.641,164.943 223.712,164.947 225.782,164.950 227.853,164.953 229.923,164.956 231.994,164.959 234.065,165.452 236.135,165.423 238.206,165.396 240.276,165.370 242.347,165.346 244.417,164.569 246.488,164.597 248.558,164.623 250.629,164.647 252.699,164.670 254.770,164.691 256.840,164.711 258.911,164.730 260.981,164.747 263.052,146.565 265.122,59.378 267.193,30.000 269.263,30.000 271.334,30.000 273.404,30.000 275.475,30.000 277.545,30.000 279.616,30.000 281.686,30.000 283.757,31.788 285.827,40.379 287.898,48.416 289.968,55.935 292.039,62.969 294.110,69.549 296.180,75.705 298.251,81.464 300.321,86.852 302.392,91.892 304.462,96.607 306.533,101.018 308.603,105.144 310.674,109.004 312.744,112.616 314.815,115.994 316.885,119.155 318.956,122.111 321.026,124.877 323.097,127.465 325.167,129.886 327.238,132.150 329.308,134.269 331.379,136.251 333.449,138.105 335.520,139.840 337.590,141.462 339.661,142.980 341.731,144.400 343.802,145.729 345.872,146.972 347.943,148.134 350.014,149.222 352.084,150.240 354.155,151.192 356.225,152.082 358.296,152.915 360.366,153.695 362.437,154.424 364.507,155.106 366.578,155.744 368.648,156.341 370.719,156.899 372.789,157.422 374.860,157.911 376.930,158.368 379.001,158.796 381.071,159.196 383.142,159.570 385.212,159.920 387.283,160.248 389.353,160.554 391.424,160.841 393.494,161.109 395.565,161.360 397.635,161.595 399.706,161.815 401.776,162.020 403.847,162.212 405.917,162.392 407.988,162.560 410.059,162.717 412.129,162.865 414.200,163.002 416.270,163.131 418.341,163.252 420.411,163.365 422.482,163.470 424.552,163.569 426.623,163.661 428.693,163.747 430.764,163.828 432.834,163.904 434.905,163.974 436.975,164.041 439.046,164.102 441.116,164.160 443.187,164.214 445.257,164.265 447.328,164.313 449.398,164.357 451.469,164.398 453.539,164.437 455.610,164.473 457.680,164.507 459.751,164.539 461.821,164.569 463.892,164.597 465.962,164.623 468.033,164.647 470.104,164.670 472.174,164.691 474.245,164.711 476.315,164.730 478.386,164.747 480.456,164.763 482.527,164.779 484.597,164.793 486.668,164.806 488.738,164.819 490.809,164.830 492.879,164.841 494.950,164.852 497.020,164.861 499.091,164.870 501.161,164.879 503.232,164.886 505.302,164.894 507.373,164.901 509.443,164.907 511.514,164.913 513.584,164.919 515.655,164.924 517.725,164.929 519.796,164.933 521.866,164.938 523.937,164.942 526.008,164.945 528.078,164.949 530.149,164.952 532.219,164.955 534.290,164.958 536.360,164.961 538.431,164.963 540.501,164.966 542.572,164.968 544.642,164.970 546.713,164.972 548.783,164.974 550.854,164.975 552.924,164.977 554.995,164.979 557.065,164.980 559.136,164.981 561.206,164.982 563.277,164.984 565.347,164.985 567.418,164.986 569.488,164.987 571.559,164.987 573.629,164.988 575.700,164.989 577.770,164.990 579.841,164.990 581.911,164.991 583.982,164.992 586.053,164.992 588.123,164.993 590.194,164.993 592.264,164.994 594.335,164.994 596.405,164.994 598.476,164.995 600.546,164.995 602.617,164.995 604.687,164.996 606.758,164.996 608.828,164.996 610.899,164.996 612.969,164.997 615.040,164.997 617.110,164.997 619.181,164.997 621.251,164.997 623.322,164.998 625.392,164.998 627.463,164.998 629.533,164.998 631.604,164.998 633.674,164.998 635.745,164.998 637.815,164.999 639.886,164.999 641.956,164.999 644.027,164.999 646.098,164.999 648.168,164.999 650.239,164.999 652.309,164.999 654.380,164.999 656.450,164.999 658.521,164.999 660.591,164.999 662.662,164.999 664.732,164.999 666.803,164.999 668.873,164.999 670.944,164.999 673.014,165.000 675.085,165.000 677.155,165.000 679.226,165.000 681.296,165.000 683.367,165.000 685.437,165.000 687.508,165.000 689.578,165.000 691.649,165.000 693.719,165.000 695.790,165.000 697.860,165.000 699.931,165.000 702.002,165.000 704.072,165.000 706.143,165.000 708.213,165.000 710.284,165.000 712.354,165.000 714.425,165.000 716.495,165.000 718.566,165.000 720.636,165.000 722.707,165.000 724.777,165.000 726.848,165.000 728.918,165.000 730.989,165.000 733.059,165.000 735.130,165.000 737.200,165.000 739.271,165.000 741.341,165.000 743.412,165.000 745.482,165.000 747.553,165.000 749.623,165.000 751.694,165.000 753.764,165.000 755.835,165.000 757.905,165.000 759.976,165.000 762.047,165.000 764.117,165.000 766.188,165.000 768.258,165.000 770.329,165.000 772.399,165.000 774.470,165.000 776.540,165.000 778.611,165.000 780.681,165.000 782.752,165.000 784.822,165.000 786.893,165.000 788.963,165.000 791.034,165.000 793.104,165.000 795.175,165.000 797.245,165.000 799.316,165.000 801.386,165.000 803.457,165.000 805.527,165.000 807.598,165.000 809.668,165.000 811.739,165.000 813.809,165.000 815.880,165.000 817.950,165.000 820.021,165.000 822.092,165.000 824.162,165.000 826.233,165.000 828.303,165.000 830.374,165.000 832.444,165.000 834.515,165.000 836.585,165.000 838.656,165.000 840.726,165.000 842.797,165.000 844.867,165.000 846.938,165.000 849.008,165.000 851.079,165.000 853.149,165.000 855.220,165.000 857.290,165.000 859.361,165.000 861.431,165.000 863.502,165.000 865.572,165.000 867.643,165.000 869.713,165.000 871.784,165.000 873.854,165.000 875.925,165.000 877.995,165.000 880.066,165.000 882.137,165.000" fill="none" stroke="#117a65" stroke-width="1.4" stroke-dasharray="6 4"/>
<line x1="670" y1="38" x2="690" y2="38" stroke="#c0392b" stroke-width="2"/>
<text x="696" y="42" font-family="monospace" font-size="11" fill="#111">D4 (negative burst)</text>
<line x1="670" y1="54" x2="690" y2="54" stroke="#117a65" stroke-width="2" stroke-dasharray="6 4"/>
<text x="696" y="58" font-family="monospace" font-size="11" fill="#111">D5 (positive burst)</text>
</svg>
